<svg width="222" height="222" viewBox="0 0 222 222" fill="none" xmlns="http://www.w3.org/2000/svg">
<path fill-rule="evenodd" clip-rule="evenodd" d="M141.834 64.8534C132.707 58.7551 121.977 55.5 111 55.5V0C132.954 0 154.414 6.51004 172.668 18.7069C190.922 30.9037 205.149 48.2395 213.551 68.522C221.952 88.8044 224.15 111.123 219.867 132.655C215.584 154.187 205.013 173.965 189.489 189.489C173.965 205.013 154.187 215.584 132.655 219.867C111.123 224.15 88.8044 221.952 68.522 213.551C48.2395 205.149 30.9037 190.922 18.7069 172.668C6.51004 154.414 0 132.954 0 111H55.5C55.5 121.977 58.7551 132.707 64.8534 141.834C70.9518 150.961 79.6197 158.075 89.7613 162.275C99.9022 166.476 111.062 167.575 121.827 165.433C132.593 163.292 142.482 158.006 150.245 150.245C158.006 142.482 163.292 132.593 165.433 121.827C167.575 111.062 166.476 99.9022 162.275 89.7613C158.075 79.6197 150.961 70.9518 141.834 64.8534Z" fill="url(#paint0_linear_489_179)"/>
<path fill-rule="evenodd" clip-rule="evenodd" d="M55.5 2.40385e-05C55.5 7.28839 54.0645 14.5054 51.2753 21.2389C48.4862 27.9725 44.3981 34.0908 39.2444 39.2445C34.0908 44.3981 27.9725 48.4862 21.2389 51.2754C14.5053 54.0645 7.28834 55.5 2.42596e-06 55.5L0 111C14.5767 111 29.0107 108.129 42.4779 102.551C55.9451 96.9724 68.1817 88.7961 78.4886 78.4887C88.7961 68.1818 96.9723 55.9451 102.551 42.4779C108.129 29.0107 111 14.5767 111 0L55.5 2.40385e-05Z" fill="url(#paint1_linear_489_179)"/>
<defs>
<linearGradient id="paint0_linear_489_179" x1="111" y1="0" x2="111" y2="222" gradientUnits="userSpaceOnUse">
<stop stop-color="#4B8AFF"/>
<stop offset="1" stop-color="#00FFF2"/>
</linearGradient>
<linearGradient id="paint1_linear_489_179" x1="55.5" y1="0" x2="55.5" y2="111" gradientUnits="userSpaceOnUse">
<stop stop-color="#4B8AFF"/>
<stop offset="1" stop-color="#00FFF2"/>
</linearGradient>
</defs>
</svg>
